<svg xmlns="http://www.w3.org/2000/svg" width="38" height="38" viewBox="0 0 38 38">
  <defs>
    <style>
      .cls-1 {
        fill: #272727;
      }

      .cls-2, .cls-3 {
        fill: none;
      }

      .cls-3 {
        stroke: #fff;
        stroke-linecap: round;
        stroke-linejoin: round;
        stroke-width: 1.5px;
      }
    </style>
  </defs>
  <g id="Group_10" data-name="Group 10" transform="translate(-710 -2848)">
    <path id="Path_29" data-name="Path 29" class="cls-1" d="M19,0A19,19,0,1,1,0,19,19,19,0,0,1,19,0Z" transform="translate(748 2886) rotate(180)"/>
    <g id="Group_9" data-name="Group 9" transform="translate(717 2855)">
      <path id="Path_24" data-name="Path 24" class="cls-2" d="M0,0H24V24H0Z"/>
      <circle id="Ellipse_10" data-name="Ellipse 10" class="cls-3" cx="2" cy="2" r="2" transform="translate(4 17)"/>
      <circle id="Ellipse_11" data-name="Ellipse 11" class="cls-3" cx="2" cy="2" r="2" transform="translate(15 17)"/>
      <path id="Path_25" data-name="Path 25" class="cls-3" d="M17,17H6V3H4"/>
      <path id="Path_26" data-name="Path 26" class="cls-3" d="M6,5l6.005.429M19.143,12,19,13H6"/>
      <path id="Path_27" data-name="Path 27" class="cls-3" d="M15,6h6M18,3V9"/>
    </g>
  </g>
</svg>
