<svg xmlns="http://www.w3.org/2000/svg" width="44" height="44" viewBox="0 0 44 44">
  <defs>
    <style>
      .cls-1 {
        fill: #171717;
      }

      .cls-2 {
        fill: none;
        stroke: #fff;
        stroke-linecap: round;
        stroke-linejoin: round;
        stroke-width: 1.5px;
      }
    </style>
  </defs>
  <g id="Group_11" data-name="Group 11" transform="translate(-506 -2958)">
    <circle id="Ellipse_12" data-name="Ellipse 12" class="cls-1" cx="22" cy="22" r="22" transform="translate(506 2958)"/>
    <path id="carty" class="cls-2" d="M15.75,10.5V6a3.75,3.75,0,1,0-7.5,0v4.5M19.606,8.507l1.263,12A1.124,1.124,0,0,1,19.75,21.75H4.25a1.125,1.125,0,0,1-1.12-1.243l1.264-12A1.125,1.125,0,0,1,5.513,7.5H18.487A1.125,1.125,0,0,1,19.606,8.507ZM8.625,10.5a.375.375,0,1,1-.375-.375A.375.375,0,0,1,8.625,10.5Zm7.5,0a.375.375,0,1,1-.375-.375A.375.375,0,0,1,16.125,10.5Z" transform="translate(516.376 2968.25)"/>
  </g>
</svg>
